<svg id="COBOLFIB" data-name="COBOLFIB" xmlns="http://www.w3.org/2000/svg" viewBox="0 0 460 81.93"><defs><style>.cls-1{fill:none;stroke:#397dc6;stroke-linecap:round;stroke-miterlimit:10;stroke-width:3px;}.cls-2{fill:#397dc6;}</style></defs><title>COBOL_FIB_LOGO</title><path class="cls-1" d="M447.66,62.48A2.7,2.7,0,0,1,445,59.79" transform="translate(-23.23 -1.5)"/><path class="cls-1" d="M452,58.13a4.34,4.34,0,0,1-4.34,4.35" transform="translate(-23.23 -1.5)"/><path class="cls-1" d="M445,51.12a7,7,0,0,1,7,7" transform="translate(-23.23 -1.5)"/><path class="cls-1" d="M433.61,62.5A11.38,11.38,0,0,1,445,51.12" transform="translate(-23.23 -1.5)"/><path class="cls-1" d="M452,80.86a18.41,18.41,0,0,1-18.42-18.42" transform="translate(-23.23 -1.5)"/><path class="cls-1" d="M481.73,51.06a29.78,29.78,0,0,1-29.79,29.8" transform="translate(-23.23 -1.5)"/><path class="cls-1" d="M433.53,3a48.18,48.18,0,0,1,48.2,48.21" transform="translate(-23.23 -1.5)"/><path class="cls-1" d="M355.76,81a78,78,0,0,1,78-78" transform="translate(-23.23 -1.5)"/><path class="cls-2" d="M79.64,79.79C76.11,81.55,69,83.32,60,83.32c-21,0-36.76-13.25-36.76-37.65C23.23,22.38,39,6.59,62.09,6.59c9.27,0,15.12,2,17.66,3.31l-2.32,7.84a35.06,35.06,0,0,0-15-3.09c-17.44,0-29,11.15-29,30.69,0,18.22,10.48,29.92,28.59,29.92,5.85,0,11.81-1.22,15.68-3.09Z" transform="translate(-23.23 -1.5)"/><path class="cls-2" d="M152.94,44.24c0,25.61-15.56,39.19-34.55,39.19-19.65,0-33.45-15.24-33.45-37.76,0-23.62,14.68-39.08,34.55-39.08C139.81,6.59,152.94,22.16,152.94,44.24ZM95.21,45.45c0,15.9,8.61,30.14,23.73,30.14s23.85-14,23.85-30.91c0-14.79-7.73-30.25-23.74-30.25S95.21,29.11,95.21,45.45Z" transform="translate(-23.23 -1.5)"/><path class="cls-2" d="M165.42,8.8A93.24,93.24,0,0,1,183,7.25c9.61,0,15.79,1.66,20.42,5.41,3.87,2.87,6.19,7.29,6.19,13.14,0,7.18-4.75,13.47-12.59,16.34v.22C204.06,44.13,212.34,50,212.34,61a20,20,0,0,1-6.3,14.9c-5.19,4.75-13.58,7-25.72,7a112.26,112.26,0,0,1-14.9-.89ZM175,39.27h8.72c10.16,0,16.12-5.3,16.12-12.48,0-8.72-6.62-12.14-16.34-12.14a41.42,41.42,0,0,0-8.5.66Zm0,35.66a51.56,51.56,0,0,0,8.06.44c9.94,0,19.1-3.64,19.1-14.46,0-10.16-8.72-14.35-19.21-14.35H175Z" transform="translate(-23.23 -1.5)"/><path class="cls-2" d="M288.84,44.24c0,25.61-15.57,39.19-34.55,39.19-19.66,0-33.46-15.24-33.46-37.76,0-23.62,14.69-39.08,34.56-39.08C275.7,6.59,288.84,22.16,288.84,44.24ZM231.1,45.45c0,15.9,8.61,30.14,23.74,30.14s23.84-14,23.84-30.91c0-14.79-7.72-30.25-23.73-30.25S231.1,29.11,231.1,45.45Z" transform="translate(-23.23 -1.5)"/><path class="cls-2" d="M301.31,7.81h9.61V74.16h31.79v8h-41.4Z" transform="translate(-23.23 -1.5)"/></svg>